<?xml version="1.0" encoding="UTF-8" standalone="no"?>
<!DOCTYPE svg PUBLIC "-//W3C//DTD SVG 1.1//EN"
 "http://www.w3.org/Graphics/SVG/1.1/DTD/svg11.dtd">
<!-- Generated by graphviz version 2.43.0 (0)
 -->
<!-- Title: ICON Pages: 1 -->
<svg width="1022pt" height="637pt"
 viewBox="0.00 0.00 1022.00 637.34" xmlns="http://www.w3.org/2000/svg" xmlns:xlink="http://www.w3.org/1999/xlink">
<g id="graph0" class="graph" transform="scale(1 1) rotate(0) translate(4 633.34)">
<title>ICON</title>
<polygon fill="white" stroke="transparent" points="-4,4 -4,-633.34 1018,-633.34 1018,4 -4,4"/>
<g id="clust1" class="cluster">
<title>clusterMain</title>
</g>
<g id="clust21" class="cluster">
<title>clusterLegend</title>
<polygon fill="none" stroke="black" points="91,-8 91,-77.74 912,-77.74 912,-8 91,-8"/>
</g>
<!-- ICON -->
<g id="node1" class="node">
<title>ICON</title>
<polygon fill="white" stroke="black" stroke-width="2" points="456.5,-613.34 391.5,-613.34 391.5,-577.34 456.5,-577.34 456.5,-613.34"/>
<text text-anchor="middle" x="424" y="-590.34" font-family="Times,serif" font-size="20.00">ICON</text>
</g>
<!-- STDC++ -->
<g id="node2" class="node">
<title>STDC++</title>
<ellipse fill="#79c547" stroke="black" cx="72" cy="-379.34" rx="44.39" ry="18"/>
<text text-anchor="middle" x="72" y="-375.64" font-family="Times,serif" font-size="14.00">STDC++</text>
</g>
<!-- ICON&#45;&gt;STDC++ -->
<g id="edge1" class="edge">
<title>ICON&#45;&gt;STDC++</title>
<path fill="none" stroke="black" d="M391.47,-594.91C305.85,-595.68 77.36,-592.76 27,-541.34 -0.85,-512.9 11.3,-491.73 17,-452.34"/>
<path fill="none" stroke="black" d="M17,-450.34C19.57,-431.83 31.98,-415.19 44.36,-402.78"/>
<polygon fill="black" stroke="black" points="47.09,-405.02 51.98,-395.63 42.29,-399.92 47.09,-405.02"/>
</g>
<!-- CUDA -->
<g id="node3" class="node">
<title>CUDA</title>
<ellipse fill="#79c547" stroke="black" cx="72" cy="-451.34" rx="36" ry="18"/>
<text text-anchor="middle" x="72" y="-447.64" font-family="Times,serif" font-size="14.00">CUDA</text>
</g>
<!-- ICON&#45;&gt;CUDA -->
<g id="edge2" class="edge">
<title>ICON&#45;&gt;CUDA</title>
<path fill="none" stroke="black" d="M391.26,-591.53C325.3,-585.35 179.18,-568.9 138,-541.34 130.52,-536.33 129.27,-533.05 127,-524.34"/>
<path fill="none" stroke="black" d="M127,-522.34C122.2,-503.88 109.25,-486.96 97.12,-474.37"/>
<polygon fill="black" stroke="black" points="99.34,-471.64 89.75,-467.12 94.43,-476.63 99.34,-471.64"/>
</g>
<!-- ROCm -->
<g id="node4" class="node">
<title>ROCm</title>
<ellipse fill="#79c547" stroke="black" cx="72" cy="-523.34" rx="36.29" ry="18"/>
<text text-anchor="middle" x="72" y="-519.64" font-family="Times,serif" font-size="14.00">ROCm</text>
</g>
<!-- ICON&#45;&gt;ROCm -->
<g id="edge3" class="edge">
<title>ICON&#45;&gt;ROCm</title>
<path fill="none" stroke="black" d="M391.47,-590.31C335.75,-583.02 218.69,-566.1 122,-541.34 118.11,-540.34 114.1,-539.19 110.1,-537.97"/>
<polygon fill="black" stroke="black" points="110.92,-534.55 100.33,-534.82 108.77,-541.22 110.92,-534.55"/>
</g>
<!-- MPI -->
<g id="node5" class="node">
<title>MPI</title>
<ellipse fill="#79c547" stroke="black" cx="445" cy="-163.34" rx="27" ry="18"/>
<text text-anchor="middle" x="445" y="-159.64" font-family="Times,serif" font-size="14.00">MPI</text>
</g>
<!-- ICON&#45;&gt;MPI -->
<g id="edge4" class="edge">
<title>ICON&#45;&gt;MPI</title>
<path fill="none" stroke="black" d="M127,-522.34C124.73,-513.63 130.97,-510.96 138,-505.34 174.25,-476.37 200.38,-499.07 236,-469.34 242.73,-463.72 240.82,-459.41 246,-452.34"/>
<path fill="none" stroke="black" d="M246,-450.34C274.6,-411.32 257.84,-275.68 286,-236.34"/>
<path fill="none" stroke="black" d="M286,-234.34C299.64,-211.84 368.57,-187.49 411.07,-174.26"/>
<polygon fill="black" stroke="black" points="412.2,-177.58 420.74,-171.3 410.15,-170.88 412.2,-177.58"/>
</g>
<!-- ZLIB -->
<g id="node6" class="node">
<title>ZLIB</title>
<ellipse fill="#79c547" stroke="black" cx="734" cy="-163.34" rx="30.59" ry="18"/>
<text text-anchor="middle" x="734" y="-159.64" font-family="Times,serif" font-size="14.00">ZLIB</text>
</g>
<!-- ICON&#45;&gt;ZLIB -->
<g id="edge5" class="edge">
<title>ICON&#45;&gt;ZLIB</title>
<path fill="none" stroke="black" d="M959,-450.34C993.52,-327.84 834.38,-221.03 764.99,-181.07"/>
<polygon fill="black" stroke="black" points="766.64,-177.99 756.21,-176.1 763.19,-184.08 766.64,-177.99"/>
</g>
<!-- HDF5 -->
<g id="node7" class="node">
<title>HDF5</title>
<ellipse fill="#79c547" stroke="black" cx="419" cy="-235.34" rx="32.49" ry="18"/>
<text text-anchor="middle" x="419" y="-231.64" font-family="Times,serif" font-size="14.00">HDF5</text>
</g>
<!-- ICON&#45;&gt;HDF5 -->
<g id="edge6" class="edge">
<title>ICON&#45;&gt;HDF5</title>
<path fill="none" stroke="black" d="M391.3,-592.31C357.79,-588.29 307.27,-576.39 283,-541.34 228.62,-462.8 380.94,-485.52 394,-469.34 409.16,-450.57 402.44,-385.33 405,-361.34 408.62,-327.52 413.01,-288.58 415.9,-263.28"/>
<polygon fill="black" stroke="black" points="419.38,-263.65 417.04,-253.32 412.43,-262.85 419.38,-263.65"/>
</g>
<!-- NetCDF&#45;Fortran -->
<g id="node8" class="node">
<title>NetCDF&#45;Fortran</title>
<ellipse fill="#47a1f1" stroke="black" cx="559" cy="-379.34" rx="69.59" ry="18"/>
<text text-anchor="middle" x="559" y="-375.64" font-family="Times,serif" font-size="14.00">NetCDF&#45;Fortran</text>
</g>
<!-- ICON&#45;&gt;NetCDF&#45;Fortran -->
<g id="edge7" class="edge">
<title>ICON&#45;&gt;NetCDF&#45;Fortran</title>
<path fill="none" stroke="black" d="M402.88,-577.16C382.32,-558.38 356.66,-527.94 375,-505.34 423.94,-445.03 482.94,-514.67 546,-469.34 553.12,-464.22 551.5,-459.86 556,-452.34"/>
<path fill="none" stroke="black" d="M556,-450.34C563.5,-437.71 564.59,-421.43 563.65,-407.74"/>
<polygon fill="black" stroke="black" points="567.1,-407.02 562.55,-397.45 560.14,-407.76 567.1,-407.02"/>
</g>
<!-- RTE+RRTMGP -->
<g id="node9" class="node">
<title>RTE+RRTMGP</title>
<polygon fill="#79c547" stroke="black" points="253.5,-541.34 146.5,-541.34 146.5,-505.34 253.5,-505.34 253.5,-541.34"/>
<text text-anchor="middle" x="200" y="-519.64" font-family="Times,serif" font-size="14.00">RTE+RRTMGP</text>
</g>
<!-- ICON&#45;&gt;RTE+RRTMGP -->
<g id="edge8" class="edge">
<title>ICON&#45;&gt;RTE+RRTMGP</title>
<path fill="none" stroke="black" d="M391.43,-584.16C358.07,-573.74 305.33,-557.26 263.65,-544.23"/>
<polygon fill="black" stroke="black" points="264.44,-540.81 253.85,-541.17 262.35,-547.49 264.44,-540.81"/>
</g>
<!-- ECRAD -->
<g id="node10" class="node">
<title>ECRAD</title>
<polygon fill="#79c547" stroke="black" points="544,-541.34 482,-541.34 482,-505.34 544,-505.34 544,-541.34"/>
<text text-anchor="middle" x="513" y="-519.64" font-family="Times,serif" font-size="14.00">ECRAD</text>
</g>
<!-- ICON&#45;&gt;ECRAD -->
<g id="edge9" class="edge">
<title>ICON&#45;&gt;ECRAD</title>
<path fill="none" stroke="black" d="M446,-577.04C457.21,-568.22 471,-557.37 483.15,-547.81"/>
<polygon fill="black" stroke="black" points="485.56,-550.38 491.25,-541.44 481.23,-544.88 485.56,-550.38"/>
</g>
<!-- BLAS -->
<g id="node11" class="node">
<title>BLAS</title>
<ellipse fill="#47a1f1" stroke="black" cx="814" cy="-379.34" rx="33.29" ry="18"/>
<text text-anchor="middle" x="814" y="-375.64" font-family="Times,serif" font-size="14.00">BLAS</text>
</g>
<!-- ICON&#45;&gt;BLAS -->
<g id="edge10" class="edge">
<title>ICON&#45;&gt;BLAS</title>
<path fill="none" stroke="black" d="M655,-522.34C663.54,-519.51 658.38,-510.13 666,-505.34 773.32,-437.83 843.14,-539.12 949,-469.34 956.32,-464.52 956.62,-460.78 959,-452.34"/>
<path fill="none" stroke="black" d="M959,-450.34C971.86,-404.72 904.07,-388.82 856.83,-383.29"/>
<polygon fill="black" stroke="black" points="857.11,-379.8 846.8,-382.23 856.38,-386.76 857.11,-379.8"/>
</g>
<!-- LAPACK -->
<g id="node12" class="node">
<title>LAPACK</title>
<ellipse fill="#47a1f1" stroke="black" cx="713" cy="-451.34" rx="46.29" ry="18"/>
<text text-anchor="middle" x="713" y="-447.64" font-family="Times,serif" font-size="14.00">LAPACK</text>
</g>
<!-- ICON&#45;&gt;LAPACK -->
<g id="edge11" class="edge">
<title>ICON&#45;&gt;LAPACK</title>
<path fill="none" stroke="black" d="M456.55,-594.24C502.8,-592.53 588.23,-583.36 645,-541.34 652.05,-536.12 646.68,-527.1 655,-524.34"/>
<path fill="none" stroke="black" d="M655,-522.34C663.54,-519.51 660.55,-512.5 666,-505.34 673.6,-495.34 682.61,-484.89 690.7,-475.94"/>
<polygon fill="black" stroke="black" points="693.34,-478.24 697.52,-468.5 688.18,-473.51 693.34,-478.24"/>
</g>
<!-- RTTOV -->
<g id="node13" class="node">
<title>RTTOV</title>
<ellipse fill="#79c547" stroke="black" cx="424" cy="-523.34" rx="40.09" ry="18"/>
<text text-anchor="middle" x="424" y="-519.64" font-family="Times,serif" font-size="14.00">RTTOV</text>
</g>
<!-- ICON&#45;&gt;RTTOV -->
<g id="edge12" class="edge">
<title>ICON&#45;&gt;RTTOV</title>
<path fill="none" stroke="black" d="M424,-577.04C424,-569.32 424,-560.05 424,-551.45"/>
<polygon fill="black" stroke="black" points="427.5,-551.44 424,-541.44 420.5,-551.44 427.5,-551.44"/>
</g>
<!-- SCT -->
<g id="node14" class="node">
<title>SCT</title>
<polygon fill="#79c547" stroke="black" points="339,-325.34 285,-325.34 285,-289.34 339,-289.34 339,-325.34"/>
<text text-anchor="middle" x="312" y="-303.64" font-family="Times,serif" font-size="14.00">SCT</text>
</g>
<!-- ICON&#45;&gt;SCT -->
<g id="edge13" class="edge">
<title>ICON&#45;&gt;SCT</title>
<path fill="none" stroke="black" d="M246,-450.34C253.45,-440.52 283.45,-373.39 300.32,-335.05"/>
<polygon fill="black" stroke="black" points="303.69,-336.08 304.51,-325.52 297.28,-333.27 303.69,-336.08"/>
</g>
<!-- YAXT -->
<g id="node15" class="node">
<title>YAXT</title>
<polygon fill="#79c547" stroke="black" points="629,-469.34 575,-469.34 575,-433.34 629,-433.34 629,-469.34"/>
<text text-anchor="middle" x="602" y="-447.64" font-family="Times,serif" font-size="14.00">YAXT</text>
</g>
<!-- ICON&#45;&gt;YAXT -->
<g id="edge14" class="edge">
<title>ICON&#45;&gt;YAXT</title>
<path fill="none" stroke="black" d="M456.7,-587.41C484.95,-580.03 525.45,-565.93 553,-541.34 553.34,-541.04 573.32,-504.65 587.66,-478.5"/>
<polygon fill="black" stroke="black" points="590.9,-479.87 592.64,-469.42 584.77,-476.51 590.9,-479.87"/>
</g>
<!-- ECCODES -->
<g id="node16" class="node">
<title>ECCODES</title>
<ellipse fill="#79c547" stroke="black" cx="176" cy="-451.34" rx="50.89" ry="18"/>
<text text-anchor="middle" x="176" y="-447.64" font-family="Times,serif" font-size="14.00">ECCODES</text>
</g>
<!-- ICON&#45;&gt;ECCODES -->
<g id="edge15" class="edge">
<title>ICON&#45;&gt;ECCODES</title>
<path fill="none" stroke="black" d="M127,-522.34C122.38,-504.58 133.67,-487.64 146.57,-474.87"/>
<polygon fill="black" stroke="black" points="149.22,-477.19 154.24,-467.86 144.5,-472.02 149.22,-477.19"/>
</g>
<!-- CDI -->
<g id="node17" class="node">
<title>CDI</title>
<polygon fill="#47a1f1" stroke="black" points="346,-541.34 292,-541.34 292,-505.34 346,-505.34 346,-541.34"/>
<text text-anchor="middle" x="319" y="-519.64" font-family="Times,serif" font-size="14.00">CDI</text>
</g>
<!-- ICON&#45;&gt;CDI -->
<g id="edge16" class="edge">
<title>ICON&#45;&gt;CDI</title>
<path fill="none" stroke="black" d="M398.31,-577.22C384.71,-568.15 367.83,-556.89 353.14,-547.1"/>
<polygon fill="black" stroke="black" points="355.05,-544.16 344.78,-541.53 351.16,-549.99 355.05,-544.16"/>
</g>
<!-- SERIALBOX -->
<g id="node18" class="node">
<title>SERIALBOX</title>
<ellipse fill="#79c547" stroke="black" cx="325" cy="-451.34" rx="59.59" ry="18"/>
<text text-anchor="middle" x="325" y="-447.64" font-family="Times,serif" font-size="14.00">SERIALBOX</text>
</g>
<!-- ICON&#45;&gt;SERIALBOX -->
<g id="edge17" class="edge">
<title>ICON&#45;&gt;SERIALBOX</title>
<path fill="none" stroke="black" d="M127,-522.34C124.73,-513.63 130.76,-510.69 138,-505.34 148.81,-497.35 218.64,-478.77 269.81,-465.88"/>
<polygon fill="black" stroke="black" points="270.92,-469.21 279.77,-463.38 269.22,-462.42 270.92,-469.21"/>
</g>
<!-- MTIME -->
<g id="node19" class="node">
<title>MTIME</title>
<polygon fill="#47a1f1" stroke="black" points="939.5,-469.34 876.5,-469.34 876.5,-433.34 939.5,-433.34 939.5,-469.34"/>
<text text-anchor="middle" x="908" y="-447.64" font-family="Times,serif" font-size="14.00">MTIME</text>
</g>
<!-- ICON&#45;&gt;MTIME -->
<g id="edge18" class="edge">
<title>ICON&#45;&gt;MTIME</title>
<path fill="none" stroke="black" d="M655,-522.34C663.54,-519.51 658.5,-510.32 666,-505.34 739.29,-456.65 777.83,-492.61 866.47,-469.34"/>
<polygon fill="black" stroke="black" points="867.68,-472.63 876.36,-466.55 865.79,-465.89 867.68,-472.63"/>
</g>
<!-- YAC -->
<g id="node20" class="node">
<title>YAC</title>
<polygon fill="#79c547" stroke="black" points="636,-541.34 582,-541.34 582,-505.34 636,-505.34 636,-541.34"/>
<text text-anchor="middle" x="609" y="-519.64" font-family="Times,serif" font-size="14.00">YAC</text>
</g>
<!-- ICON&#45;&gt;YAC -->
<g id="edge19" class="edge">
<title>ICON&#45;&gt;YAC</title>
<path fill="none" stroke="black" d="M456.74,-582.72C486.02,-572.22 530.04,-556.19 568,-541.34 569.39,-540.8 570.81,-540.24 572.23,-539.67"/>
<polygon fill="black" stroke="black" points="573.76,-542.83 581.72,-535.83 571.13,-536.34 573.76,-542.83"/>
</g>
<!-- ICON&#45;TIXI -->
<g id="node21" class="node">
<title>ICON&#45;TIXI</title>
<polygon fill="#79c547" stroke="black" points="755.5,-541.34 674.5,-541.34 674.5,-505.34 755.5,-505.34 755.5,-541.34"/>
<text text-anchor="middle" x="715" y="-519.64" font-family="Times,serif" font-size="14.00">ICON&#45;TIXI</text>
</g>
<!-- ICON&#45;&gt;ICON&#45;TIXI -->
<g id="edge20" class="edge">
<title>ICON&#45;&gt;ICON&#45;TIXI</title>
<path fill="none" stroke="black" d="M456.65,-587.86C502.37,-578.59 587.97,-560.53 660,-541.34 661.45,-540.95 662.92,-540.56 664.4,-540.15"/>
<polygon fill="black" stroke="black" points="665.6,-543.44 674.26,-537.33 663.68,-536.71 665.6,-543.44"/>
</g>
<!-- COMIN -->
<g id="node22" class="node">
<title>COMIN</title>
<polygon fill="#79c547" stroke="black" points="836,-541.34 774,-541.34 774,-505.34 836,-505.34 836,-541.34"/>
<text text-anchor="middle" x="805" y="-519.64" font-family="Times,serif" font-size="14.00">COMIN</text>
</g>
<!-- ICON&#45;&gt;COMIN -->
<g id="edge21" class="edge">
<title>ICON&#45;&gt;COMIN</title>
<path fill="none" stroke="black" d="M456.54,-591.98C516.2,-587.08 646.98,-573.67 763.99,-541.24"/>
<polygon fill="black" stroke="black" points="765.15,-544.54 773.82,-538.46 763.25,-537.81 765.15,-544.54"/>
</g>
<!-- FORTRAN&#45;SUPPORT -->
<g id="node23" class="node">
<title>FORTRAN&#45;SUPPORT</title>
<polygon fill="#47a1f1" stroke="black" points="997.5,-541.34 854.5,-541.34 854.5,-505.34 997.5,-505.34 997.5,-541.34"/>
<text text-anchor="middle" x="926" y="-519.64" font-family="Times,serif" font-size="14.00">FORTRAN&#45;SUPPORT</text>
</g>
<!-- ICON&#45;&gt;FORTRAN&#45;SUPPORT -->
<g id="edge22" class="edge">
<title>ICON&#45;&gt;FORTRAN&#45;SUPPORT</title>
<path fill="none" stroke="black" d="M456.62,-591.15C526.01,-584.17 693.56,-566.27 844.17,-541.4"/>
<polygon fill="black" stroke="black" points="844.78,-544.85 854.07,-539.75 843.63,-537.95 844.78,-544.85"/>
</g>
<!-- CUDA&#45;&gt;STDC++ -->
<g id="edge23" class="edge">
<title>CUDA&#45;&gt;STDC++</title>
<path fill="none" stroke="black" d="M72,-433.04C72,-425.32 72,-416.05 72,-407.45"/>
<polygon fill="black" stroke="black" points="75.5,-407.44 72,-397.44 68.5,-407.44 75.5,-407.44"/>
</g>
<!-- ROCm&#45;&gt;STDC++ -->
<g id="edge24" class="edge">
<title>ROCm&#45;&gt;STDC++</title>
<path fill="none" stroke="black" d="M50.48,-508.58C33.66,-495.91 13.63,-475.59 17,-452.34"/>
</g>
<!-- ROCm&#45;&gt;CUDA -->
<g id="edge25" class="edge">
<title>ROCm&#45;&gt;CUDA</title>
<path fill="none" stroke="black" d="M72,-505.04C72,-497.32 72,-488.05 72,-479.45"/>
<polygon fill="black" stroke="black" points="75.5,-479.44 72,-469.44 68.5,-479.44 75.5,-479.44"/>
</g>
<!-- HDF5&#45;&gt;MPI -->
<g id="edge26" class="edge">
<title>HDF5&#45;&gt;MPI</title>
<path fill="none" stroke="black" d="M425.29,-217.4C428.26,-209.4 431.88,-199.67 435.19,-190.74"/>
<polygon fill="black" stroke="black" points="438.56,-191.72 438.76,-181.13 432,-189.28 438.56,-191.72"/>
</g>
<!-- HDF5&#45;&gt;ZLIB -->
<g id="edge27" class="edge">
<title>HDF5&#45;&gt;ZLIB</title>
<path fill="none" stroke="black" d="M448.63,-227.75C505.94,-215.02 631.89,-187.03 695.55,-172.88"/>
<polygon fill="black" stroke="black" points="696.58,-176.24 705.58,-170.66 695.06,-169.41 696.58,-176.24"/>
</g>
<!-- AEC / SZIP -->
<g id="node24" class="node">
<title>AEC / SZIP</title>
<ellipse fill="#def1d1" stroke="black" cx="306" cy="-163.34" rx="53.89" ry="18"/>
<text text-anchor="middle" x="306" y="-159.64" font-family="Times,serif" font-size="14.00">AEC / SZIP</text>
</g>
<!-- HDF5&#45;&gt;AEC / SZIP -->
<g id="edge28" class="edge">
<title>HDF5&#45;&gt;AEC / SZIP</title>
<path fill="none" stroke="black" d="M398.01,-221.34C381.48,-211.1 358.13,-196.63 339.09,-184.84"/>
<polygon fill="black" stroke="black" points="340.76,-181.75 330.41,-179.46 337.07,-187.7 340.76,-181.75"/>
</g>
<!-- NetCDF&#45;C -->
<g id="node25" class="node">
<title>NetCDF&#45;C</title>
<ellipse fill="#d1e8fc" stroke="black" cx="559" cy="-307.34" rx="49.29" ry="18"/>
<text text-anchor="middle" x="559" y="-303.64" font-family="Times,serif" font-size="14.00">NetCDF&#45;C</text>
</g>
<!-- NetCDF&#45;Fortran&#45;&gt;NetCDF&#45;C -->
<g id="edge29" class="edge">
<title>NetCDF&#45;Fortran&#45;&gt;NetCDF&#45;C</title>
<path fill="none" stroke="black" d="M559,-361.04C559,-353.32 559,-344.05 559,-335.45"/>
<polygon fill="black" stroke="black" points="562.5,-335.44 559,-325.44 555.5,-335.44 562.5,-335.44"/>
</g>
<!-- ECRAD&#45;&gt;NetCDF&#45;Fortran -->
<g id="edge30" class="edge">
<title>ECRAD&#45;&gt;NetCDF&#45;Fortran</title>
<path fill="none" stroke="black" d="M523.81,-505.22C530.31,-494.87 538.7,-481.39 546,-469.34 550.54,-461.84 551.5,-459.86 556,-452.34"/>
</g>
<!-- LAPACK&#45;&gt;BLAS -->
<g id="edge31" class="edge">
<title>LAPACK&#45;&gt;BLAS</title>
<path fill="none" stroke="black" d="M734.92,-435.15C749.8,-424.84 769.62,-411.1 785.69,-399.96"/>
<polygon fill="black" stroke="black" points="787.96,-402.65 794.18,-394.08 783.97,-396.9 787.96,-402.65"/>
</g>
<!-- RTTOV&#45;&gt;HDF5 -->
<g id="edge32" class="edge">
<title>RTTOV&#45;&gt;HDF5</title>
<path fill="none" stroke="black" d="M434.11,-505.84C439.71,-495.71 446.11,-482.25 449,-469.34 465.55,-395.47 442.33,-306.22 428.31,-262.74"/>
<polygon fill="black" stroke="black" points="431.61,-261.58 425.14,-253.19 424.97,-263.79 431.61,-261.58"/>
</g>
<!-- RTTOV&#45;&gt;NetCDF&#45;Fortran -->
<g id="edge33" class="edge">
<title>RTTOV&#45;&gt;NetCDF&#45;Fortran</title>
<path fill="none" stroke="black" d="M454.74,-511.48C486.02,-500 531.86,-481.85 546,-469.34 552.56,-463.53 551.5,-459.86 556,-452.34"/>
</g>
<!-- RTTOV&#45;&gt;LAPACK -->
<g id="edge34" class="edge">
<title>RTTOV&#45;&gt;LAPACK</title>
<path fill="none" stroke="black" d="M454.12,-511.17C460.32,-509.07 466.83,-507.02 473,-505.34 551.72,-483.92 573.69,-488.47 653,-469.34 657.69,-468.21 662.56,-466.96 667.41,-465.66"/>
<polygon fill="black" stroke="black" points="668.55,-468.98 677.27,-462.96 666.7,-462.23 668.55,-468.98"/>
</g>
<!-- SCT&#45;&gt;MPI -->
<g id="edge35" class="edge">
<title>SCT&#45;&gt;MPI</title>
<path fill="none" stroke="black" d="M297.15,-289.3C286,-274.32 274.45,-252.47 286,-236.34"/>
</g>
<!-- SCT&#45;&gt;HDF5 -->
<g id="edge36" class="edge">
<title>SCT&#45;&gt;HDF5</title>
<path fill="none" stroke="black" d="M338.18,-289.22C353.94,-278.9 374.03,-265.76 390.24,-255.15"/>
<polygon fill="black" stroke="black" points="392.34,-257.96 398.79,-249.56 388.51,-252.11 392.34,-257.96"/>
</g>
<!-- YAXT&#45;&gt;MPI -->
<g id="edge37" class="edge">
<title>YAXT&#45;&gt;MPI</title>
<path fill="none" stroke="black" d="M627.58,-433.32C643.44,-420.9 661.91,-402.4 668,-380.34"/>
<path fill="none" stroke="black" d="M668,-378.34C696.36,-275.55 546.31,-203.39 477.75,-176.25"/>
<polygon fill="black" stroke="black" points="478.85,-172.92 468.26,-172.57 476.32,-179.44 478.85,-172.92"/>
</g>
<!-- ECCODES&#45;&gt;AEC / SZIP -->
<g id="edge38" class="edge">
<title>ECCODES&#45;&gt;AEC / SZIP</title>
<path fill="none" stroke="black" d="M182.52,-433.29C193.88,-403.75 218.29,-341.26 241,-289.34 251.43,-265.48 256.12,-260.44 266,-236.34"/>
<path fill="none" stroke="black" d="M266,-234.34C271.93,-218.88 280.92,-202.76 288.87,-189.9"/>
<polygon fill="black" stroke="black" points="292.02,-191.47 294.43,-181.16 286.11,-187.72 292.02,-191.47"/>
</g>
<!-- CDI&#45;&gt;MPI -->
<g id="edge39" class="edge">
<title>CDI&#45;&gt;MPI</title>
<path fill="none" stroke="black" d="M346.01,-511.98C380.38,-498.07 436.25,-472.74 444,-452.34"/>
<path fill="none" stroke="black" d="M444,-450.34C452.89,-426.95 429.29,-421.99 425,-397.34 422.26,-381.58 422.25,-377.1 425,-361.34 435.15,-303.17 469.45,-295.38 470,-236.34"/>
<path fill="none" stroke="black" d="M470,-234.34C468.85,-218.96 463.33,-202.68 457.76,-189.69"/>
<polygon fill="black" stroke="black" points="460.89,-188.13 453.57,-180.48 454.52,-191.03 460.89,-188.13"/>
</g>
<!-- CDI&#45;&gt;YAXT -->
<g id="edge40" class="edge">
<title>CDI&#45;&gt;YAXT</title>
<path fill="none" stroke="black" d="M346.19,-513.47C355.29,-510.66 365.53,-507.69 375,-505.34 456.73,-485.08 480.37,-493.59 561,-469.34 562.43,-468.91 563.88,-468.45 565.33,-467.96"/>
<polygon fill="black" stroke="black" points="566.74,-471.17 574.93,-464.46 564.34,-464.6 566.74,-471.17"/>
</g>
<!-- CDI&#45;&gt;ECCODES -->
<g id="edge41" class="edge">
<title>CDI&#45;&gt;ECCODES</title>
<path fill="none" stroke="black" d="M291.77,-509.01C269.63,-498.18 238.17,-482.78 213.63,-470.76"/>
<polygon fill="black" stroke="black" points="215.12,-467.59 204.6,-466.34 212.05,-473.88 215.12,-467.59"/>
</g>
<!-- CDI&#45;&gt;AEC / SZIP -->
<g id="edge42" class="edge">
<title>CDI&#45;&gt;AEC / SZIP</title>
<path fill="none" stroke="black" d="M346.04,-511.2C363.18,-502.55 383.96,-488.74 394,-469.34 401.36,-455.13 400.45,-447.98 394,-433.34 365.35,-368.27 308.25,-388.7 276,-325.34 257.95,-289.87 251.75,-273.51 266,-236.34"/>
</g>
<!-- CDI&#45;&gt;NetCDF&#45;C -->
<g id="edge43" class="edge">
<title>CDI&#45;&gt;NetCDF&#45;C</title>
<path fill="none" stroke="black" d="M444,-450.34C455.27,-420.68 406.96,-402.15 430,-380.34"/>
</g>
<!-- PPM -->
<g id="node26" class="node">
<title>PPM</title>
<polygon fill="#def1d1" stroke="black" points="537,-469.34 483,-469.34 483,-433.34 537,-433.34 537,-469.34"/>
<text text-anchor="middle" x="510" y="-447.64" font-family="Times,serif" font-size="14.00">PPM</text>
</g>
<!-- CDI&#45;&gt;PPM -->
<g id="edge44" class="edge">
<title>CDI&#45;&gt;PPM</title>
<path fill="none" stroke="black" d="M346.27,-510.8C350.83,-508.93 355.54,-507.05 360,-505.34 398.23,-490.67 442.48,-475.22 472.96,-464.81"/>
<polygon fill="black" stroke="black" points="474.4,-468.02 482.74,-461.48 472.15,-461.39 474.4,-468.02"/>
</g>
<!-- SERIALBOX&#45;&gt;STDC++ -->
<g id="edge45" class="edge">
<title>SERIALBOX&#45;&gt;STDC++</title>
<path fill="none" stroke="black" d="M282.65,-438.62C236.92,-425.97 164.32,-405.88 117.42,-392.91"/>
<polygon fill="black" stroke="black" points="118.1,-389.46 107.53,-390.17 116.23,-396.21 118.1,-389.46"/>
</g>
<!-- SERIALBOX&#45;&gt;NetCDF&#45;C -->
<g id="edge46" class="edge">
<title>SERIALBOX&#45;&gt;NetCDF&#45;C</title>
<path fill="none" stroke="black" d="M352.72,-435.38C375.04,-422.55 406.46,-402.63 430,-380.34"/>
<path fill="none" stroke="black" d="M430,-378.34C454.91,-354.75 489.29,-336.62 516.3,-324.72"/>
<polygon fill="black" stroke="black" points="517.7,-327.93 525.52,-320.77 514.95,-321.49 517.7,-327.93"/>
</g>
<!-- YAC&#45;&gt;MPI -->
<g id="edge47" class="edge">
<title>YAC&#45;&gt;MPI</title>
<path fill="none" stroke="black" d="M648,-450.34C657.88,-419.53 661.57,-412.05 668,-380.34"/>
</g>
<!-- YAC&#45;&gt;LAPACK -->
<g id="edge48" class="edge">
<title>YAC&#45;&gt;LAPACK</title>
<path fill="none" stroke="black" d="M634.44,-505.22C648.82,-495.54 666.9,-483.37 682.09,-473.15"/>
<polygon fill="black" stroke="black" points="684.3,-475.87 690.65,-467.39 680.4,-470.07 684.3,-475.87"/>
</g>
<!-- YAC&#45;&gt;YAXT -->
<g id="edge49" class="edge">
<title>YAC&#45;&gt;YAXT</title>
<path fill="none" stroke="black" d="M607.27,-505.04C606.5,-497.32 605.57,-488.05 604.71,-479.45"/>
<polygon fill="black" stroke="black" points="608.19,-479.05 603.71,-469.44 601.22,-479.74 608.19,-479.05"/>
</g>
<!-- YAC&#45;&gt;MTIME -->
<g id="edge50" class="edge">
<title>YAC&#45;&gt;MTIME</title>
<path fill="none" stroke="black" d="M636.04,-510.11C640.63,-508.33 645.41,-506.65 650,-505.34 741.38,-479.23 771.74,-495.6 866.67,-469.35"/>
<polygon fill="black" stroke="black" points="867.72,-472.7 876.37,-466.59 865.8,-465.96 867.72,-472.7"/>
</g>
<!-- YAC&#45;&gt;NetCDF&#45;C -->
<g id="edge51" class="edge">
<title>YAC&#45;&gt;NetCDF&#45;C</title>
<path fill="none" stroke="black" d="M621.09,-505.08C630.03,-491.42 641.71,-471.51 648,-452.34"/>
<path fill="none" stroke="black" d="M648,-450.34C660.42,-412.52 658.67,-395.36 638,-361.34 628.91,-346.38 613.8,-334.72 599.22,-326.19"/>
<polygon fill="black" stroke="black" points="600.72,-323.02 590.27,-321.29 597.36,-329.16 600.72,-323.02"/>
</g>
<!-- FYAML -->
<g id="node27" class="node">
<title>FYAML</title>
<ellipse fill="#d1e8fc" stroke="black" cx="818" cy="-451.34" rx="40.89" ry="18"/>
<text text-anchor="middle" x="818" y="-447.64" font-family="Times,serif" font-size="14.00">FYAML</text>
</g>
<!-- YAC&#45;&gt;FYAML -->
<g id="edge52" class="edge">
<title>YAC&#45;&gt;FYAML</title>
<path fill="none" stroke="black" d="M636.2,-510.63C640.78,-508.78 645.5,-506.95 650,-505.34 701.61,-486.82 715.82,-486.17 768,-469.34 770.96,-468.39 774.01,-467.39 777.08,-466.37"/>
<polygon fill="black" stroke="black" points="778.47,-469.6 786.84,-463.1 776.25,-462.96 778.47,-469.6"/>
</g>
<!-- XML2 -->
<g id="node28" class="node">
<title>XML2</title>
<ellipse fill="#d1e8fc" stroke="black" cx="963" cy="-235.34" rx="35.19" ry="18"/>
<text text-anchor="middle" x="963" y="-231.64" font-family="Times,serif" font-size="14.00">XML2</text>
</g>
<!-- ICON&#45;TIXI&#45;&gt;XML2 -->
<g id="edge53" class="edge">
<title>ICON&#45;TIXI&#45;&gt;XML2</title>
<path fill="none" stroke="black" d="M755.51,-508C758.7,-507.05 761.89,-506.14 765,-505.34 808.51,-494.08 935.19,-503.83 964,-469.34 1013.41,-410.19 988.72,-310.03 972.86,-262.66"/>
<polygon fill="black" stroke="black" points="976.13,-261.42 969.54,-253.13 969.52,-263.72 976.13,-261.42"/>
</g>
<!-- NetCDF&#45;C&#45;&gt;ZLIB -->
<g id="edge54" class="edge">
<title>NetCDF&#45;C&#45;&gt;ZLIB</title>
<path fill="none" stroke="black" d="M578.4,-290.6C610.28,-264.73 673.74,-213.24 708.96,-184.65"/>
<polygon fill="black" stroke="black" points="711.3,-187.26 716.86,-178.25 706.89,-181.83 711.3,-187.26"/>
</g>
<!-- NetCDF&#45;C&#45;&gt;HDF5 -->
<g id="edge55" class="edge">
<title>NetCDF&#45;C&#45;&gt;HDF5</title>
<path fill="none" stroke="black" d="M531.01,-292.34C508.04,-280.86 475.5,-264.59 451.41,-252.55"/>
<polygon fill="black" stroke="black" points="452.82,-249.33 442.31,-247.99 449.69,-255.6 452.82,-249.33"/>
</g>
<!-- PPM&#45;&gt;MPI -->
<g id="edge56" class="edge">
<title>PPM&#45;&gt;MPI</title>
<path fill="none" stroke="black" d="M497.58,-433.1C491.12,-423.15 483.79,-410.11 480,-397.34 459.6,-328.61 470,-308.03 470,-236.34"/>
</g>
<!-- PPM&#45;&gt;NetCDF&#45;Fortran -->
<g id="edge57" class="edge">
<title>PPM&#45;&gt;NetCDF&#45;Fortran</title>
<path fill="none" stroke="black" d="M522.11,-433.04C527.87,-424.81 534.86,-414.82 541.21,-405.76"/>
<polygon fill="black" stroke="black" points="544.16,-407.64 547.03,-397.44 538.42,-403.63 544.16,-407.64"/>
</g>
<!-- XML2&#45;&gt;ZLIB -->
<g id="edge58" class="edge">
<title>XML2&#45;&gt;ZLIB</title>
<path fill="none" stroke="black" d="M935.09,-224.4C928.22,-222.02 920.86,-219.54 914,-217.34 864.66,-201.53 807.15,-184.91 770.67,-174.58"/>
<polygon fill="black" stroke="black" points="771.53,-171.19 760.96,-171.85 769.63,-177.93 771.53,-171.19"/>
</g>
<!-- bottomNode -->
<!-- external -->
<g id="node30" class="node">
<title>external</title>
<ellipse fill="white" stroke="black" cx="146" cy="-42.87" rx="46.84" ry="26.74"/>
<text text-anchor="middle" x="146" y="-46.67" font-family="Times,serif" font-size="14.00">External</text>
<text text-anchor="middle" x="146" y="-31.67" font-family="Times,serif" font-size="14.00">packages</text>
</g>
<!-- bottomNode&#45;&gt;external -->
<!-- bundled -->
<g id="node31" class="node">
<title>bundled</title>
<polygon fill="white" stroke="black" points="277,-61.87 211,-61.87 211,-23.87 277,-23.87 277,-61.87"/>
<text text-anchor="middle" x="244" y="-46.67" font-family="Times,serif" font-size="14.00">Bundled</text>
<text text-anchor="middle" x="244" y="-31.67" font-family="Times,serif" font-size="14.00">packages</text>
</g>
<!-- external&#45;&gt;bundled -->
<!-- mandatoryIcon -->
<g id="node32" class="node">
<title>mandatoryIcon</title>
<polygon fill="#47a1f1" stroke="transparent" points="436.5,-61.87 295.5,-61.87 295.5,-23.87 436.5,-23.87 436.5,-61.87"/>
<text text-anchor="middle" x="366" y="-46.67" font-family="Times,serif" font-size="14.00">Immediate mandatory</text>
<text text-anchor="middle" x="366" y="-31.67" font-family="Times,serif" font-size="14.00">dependencies of ICON</text>
</g>
<!-- bundled&#45;&gt;mandatoryIcon -->
<!-- optionalIcon -->
<g id="node33" class="node">
<title>optionalIcon</title>
<polygon fill="#79c547" stroke="transparent" points="595.5,-61.87 454.5,-61.87 454.5,-23.87 595.5,-23.87 595.5,-61.87"/>
<text text-anchor="middle" x="525" y="-46.67" font-family="Times,serif" font-size="14.00">Immediate optional</text>
<text text-anchor="middle" x="525" y="-31.67" font-family="Times,serif" font-size="14.00">dependencies of ICON</text>
</g>
<!-- mandatoryIcon&#45;&gt;optionalIcon -->
<!-- mandatoryBundled -->
<g id="node34" class="node">
<title>mandatoryBundled</title>
<polygon fill="#d1e8fc" stroke="transparent" points="752,-69.37 614,-69.37 614,-16.37 752,-16.37 752,-69.37"/>
<text text-anchor="middle" x="683" y="-54.17" font-family="Times,serif" font-size="14.00">Immediate mandatory</text>
<text text-anchor="middle" x="683" y="-39.17" font-family="Times,serif" font-size="14.00">dependencies of</text>
<text text-anchor="middle" x="683" y="-24.17" font-family="Times,serif" font-size="14.00">the bundled packages</text>
</g>
<!-- optionalIcon&#45;&gt;mandatoryBundled -->
<!-- optionalBundled -->
<g id="node35" class="node">
<title>optionalBundled</title>
<polygon fill="#def1d1" stroke="transparent" points="904,-69.37 770,-69.37 770,-16.37 904,-16.37 904,-69.37"/>
<text text-anchor="middle" x="837" y="-54.17" font-family="Times,serif" font-size="14.00">Immediate optional</text>
<text text-anchor="middle" x="837" y="-39.17" font-family="Times,serif" font-size="14.00">dependencies of</text>
<text text-anchor="middle" x="837" y="-24.17" font-family="Times,serif" font-size="14.00">the bundled packages</text>
</g>
<!-- mandatoryBundled&#45;&gt;optionalBundled -->
</g>
</svg>
